PathFileType	4	(X/Y/Z)	/Users/niels/Desktop/University/Third Semester/Perception and Action/Exam/Gymnastics Motion Tracking/Code for Gym Tracking/Analyzed Data/Webcam_Backflip/id6_4_pure_Sports2D/id6_4_pure_Sports2D_px_person00.trc
DataRate	CameraRate	NumFrames	NumMarkers	Units	OrigDataRate	OrigDataStartFrame	OrigNumFrames
29.8125	29.8125	12	22	m	29.8125	120	160
Frame#	Time	Hip			RHip			RKnee			RAnkle			RBigToe			RSmallToe			RHeel			LHip			LKnee			LAnkle			LBigToe			LSmallToe			LHeel			Neck			Head			Nose			RShoulder			RElbow			RWrist			LShoulder			LElbow			LWrist		
		X1	Y1	Z1	X2	Y2	Z2	X3	Y3	Z3	X4	Y4	Z4	X5	Y5	Z5	X6	Y6	Z6	X7	Y7	Z7	X8	Y8	Z8	X9	Y9	Z9	X10	Y10	Z10	X11	Y11	Z11	X12	Y12	Z12	X13	Y13	Z13	X14	Y14	Z14	X15	Y15	Z15	X16	Y16	Z16	X17	Y17	Z17	X18	Y18	Z18	X19	Y19	Z19	X20	Y20	Z20	X21	Y21	Z21	X22	Y22	Z22
120	4.025157232704402	0.9440982049352787	-0.6095853645406275	0.0	0.9346824777280801	-0.6081952030096753	0.0	0.9336549790359984	-0.7073839660783044	0.0	0.9196154211267138	-0.8015502214474107	0.0	0.9486466427028714	-0.8176573692389951	0.0	0.9392646777143351	-0.8180229240133363	0.0	0.9143996180324035	-0.8141261185972958	0.0	0.9544500332886264	-0.6065257045638861	0.0	0.9426570093038982	-0.7075931366131488	0.0	0.9237781263466636	-0.7985179362554601	0.0	0.9578869533675848	-0.8145770725563384	0.0	0.9521123940138491	-0.8110712483620082	0.0	0.911486077077839	-0.8092571128051025	0.0	0.9484143087301209	-0.46853847017849837	0.0	0.961668952062933	-0.4088558412210389	0.0	0.9787437725223205	-0.4429385537759666	0.0	0.9281026430557647	-0.48814554305329116	0.0	0.9138097826456959	-0.5575529659752881	0.0	0.9120986477090026	-0.6233908079954412	0.0	0.9624476371393744	-0.4891648104778933	0.0	0.966823494727397	-0.5558456295625315	0.0	0.9855070544427668	-0.6098533310664733	0.0
121	4.058700209643606	0.9444347630658925	-0.6141268201885894	0.0	0.9355661722777228	-0.6124804335622318	0.0	0.9343579666633846	-0.7127114775660236	0.0	0.919775665212892	-0.8066824159649958	0.0	0.9472736183051941	-0.8217825664113542	0.0	0.9383249584987681	-0.822002995317257	0.0	0.9145690594507117	-0.818453858535927	0.0	0.9542184819826611	-0.610931214292332	0.0	0.9421918843473567	-0.7129558929006775	0.0	0.9235222477126254	-0.8037403545456704	0.0	0.9566798186697337	-0.8185811925617205	0.0	0.9504775137666616	-0.8155588399027017	0.0	0.9112272766154792	-0.8139915968591274	0.0	0.9478551089732742	-0.47339143419424307	0.0	0.9622742972454151	-0.414553473241422	0.0	0.9791992289515983	-0.4487871645687144	0.0	0.9290952048293453	-0.49300263012441514	0.0	0.9164239214457776	-0.562861724059486	0.0	0.916885502734463	-0.6284844986351905	0.0	0.9599015017602132	-0.4940847268498931	0.0	0.9633315923228534	-0.5615379574538102	0.0	0.9808549485558992	-0.6160719311972513	0.0
122	4.092243186582809	0.944414021553121	-0.6150471069017318	0.0	0.9361343727924212	-0.6131274166953269	0.0	0.9351165002829371	-0.7144743600472311	0.0	0.9200443106694057	-0.808256158592541	0.0	0.9467975614785673	-0.8229589356405308	0.0	0.9381326737286801	-0.8231162150126088	0.0	0.9146395628923101	-0.8194568282929536	0.0	0.9537393106141088	-0.6116815486861008	0.0	0.941793337077203	-0.71464481123237	0.0	0.923388540184417	-0.805420144224522	0.0	0.9561228443488762	-0.8196489157751269	0.0	0.9495973255851025	-0.8170873752491653	0.0	0.9109165626145765	-0.8152947077875928	0.0	0.947109100708702	-0.474858526480583	0.0	0.9631332811370547	-0.4169368047197133	0.0	0.9794376390187669	-0.4515265681330448	0.0	0.9297703198626379	-0.49438351447163537	0.0	0.9189704887400791	-0.5645440183257653	0.0	0.9221895789255978	-0.6295681404646414	0.0	0.9568619901977727	-0.4954606820224241	0.0	0.9592295789773558	-0.5634168026854156	0.0	0.9757986618451927	-0.6186932818787255	0.0
123	4.125786163522012	0.9438778420789435	-0.6123071428918208	0.0	0.9362946278485205	-0.6102316770898939	0.0	0.935940117258297	-0.7124521325490187	0.0	0.9204213319928669	-0.8061249398227612	0.0	0.9473903533690203	-0.8211396654467898	0.0	0.9388150810591592	-0.8213333662679569	0.0	0.9146349500249987	-0.8171618455920399	0.0	0.9527720333953742	-0.6088276684017312	0.0	0.941527875255753	-0.7124722193622356	0.0	0.9233635377866204	-0.803411685202942	0.0	0.9563561520541732	-0.8178168260782926	0.0	0.9496498715348374	-0.8155916895741162	0.0	0.9105053660889577	-0.8131266318852358	0.0	0.9463669323619183	-0.4728569493710015	0.0	0.9643501282530209	-0.41579966346380265	0.0	0.9796487295238636	-0.450858728022391	0.0	0.9301589007107132	-0.4922083748238899	0.0	0.9213384358806724	-0.5624101499438174	0.0	0.9277769897120636	-0.6265293353132125	0.0	0.9535385463703726	-0.49317021469772854	0.0	0.9546781705344417	-0.5611785496793172	0.0	0.9705353850250645	-0.617253788499923	0.0
124	4.159329140461216	0.9427863389698152	-0.6061945804480127	0.0	0.9360479643537791	-0.6041682046918561	0.0	0.9368676022388821	-0.706842698909863	0.0	0.920885223409365	-0.8005886991170579	0.0	0.94888466272895	-0.8165145497410059	0.0	0.9401722192158348	-0.8168399617837963	0.0	0.9146013316335954	-0.8119418118362989	0.0	0.9511384381471651	-0.6027142356345482	0.0	0.9414798363332226	-0.7067033911505648	0.0	0.9234152862030318	-0.7979942092972026	0.0	0.9572237223918098	-0.8132980416985609	0.0	0.9504551801910298	-0.8112402333379484	0.0	0.9100325164056743	-0.807833915599035	0.0	0.9458078633353963	-0.4677500531724811	0.0	0.9659797764117437	-0.4114185884771102	0.0	0.979980766358598	-0.44699081991316614	0.0	0.9304266935825789	-0.4868644519944897	0.0	0.923464424334077	-0.5567523819845606	0.0	0.9332283478837584	-0.6197381157194316	0.0	0.9502149283716835	-0.4875659869604015	0.0	0.9500008928630044	-0.5551395997771484	0.0	0.9653608766859835	-0.6118165554929569	0.0
125	4.192872117400419	0.9412299825229715	-0.5973902593655291	0.0	0.9354765532078071	-0.5956192491627669	0.0	0.937907131063543	-0.6983291330139061	0.0	0.9214162136350841	-0.7923990325607503	0.0	0.9509905001452413	-0.809500489638705	0.0	0.9419381579189926	-0.8100646286039599	0.0	0.9146183102845631	-0.8044576596184561	0.0	0.9487941061218507	-0.5940174241518164	0.0	0.9416758689742676	-0.6980859434774981	0.0	0.9235443819512008	-0.789887145583566	0.0	0.9584947991652064	-0.8064589543067109	0.0	0.9517150410619071	-0.8044437032563193	0.0	0.9096344669822986	-0.8000860184113548	0.0	0.9455269158808983	-0.46020233232922236	0.0	0.9679130782829402	-0.404552746693896	0.0	0.9805068359025559	-0.44054569073110905	0.0	0.9307926081581619	-0.4790902045046433	0.0	0.9253005120957724	-0.5483038706737559	0.0	0.9380693512215434	-0.6099561078096217	0.0	0.9471855027148068	-0.4793974671876145	0.0	0.9456440182008171	-0.5461821665091738	0.0	0.9606700834384024	-0.6030614416622815	0.0
126	4.226415094339622	0.9394009776798512	-0.5869810001422548	0.0	0.9347208692628921	-0.5856200801414185	0.0	0.9390453086680643	-0.6880539488159321	0.0	0.9219900965942518	-0.7826725911687793	0.0	0.9534430506551382	-0.800811297517895	0.0	0.9439442506129906	-0.8017539349528855	0.0	0.9147654048945588	-0.7956339570358257	0.0	0.9458705676428842	-0.5837989871210336	0.0	0.9420213625998095	-0.6877883983782195	0.0	0.923749342094927	-0.7802012767211189	0.0	0.9599932388540672	-0.7979444471168257	0.0	0.9531829277744772	-0.7959453895977142	0.0	0.9094503359674958	-0.7908598655153212	0.0	0.9455299314297197	-0.4510949103430829	0.0	0.9699255902119412	-0.39628017928841996	0.0	0.981222116215393	-0.4324345755558782	0.0	0.931427418895981	-0.4698540804452641	0.0	0.9268234035111071	-0.538141739673418	0.0	0.9420070795398077	-0.5982981848197573	0.0	0.9446586291926361	-0.46969185094994287	0.0	0.9419864867401836	-0.5355363627590692	0.0	0.9568426400737853	-0.5921979898848669	0.0
127	4.259958071278826	0.9375270566873809	-0.5762545547680612	0.0	0.9339281053361496	-0.575399043849132	0.0	0.9403056154760064	-0.6773730087111853	0.0	0.9225826252097601	-0.7726734824229766	0.0	0.9559208246102411	-0.7914601250377898	0.0	0.9459935565182103	-0.7929154059380797	0.0	0.9150859431402599	-0.7865319391164947	0.0	0.9426143833330469	-0.5733540394055945	0.0	0.9423291016025432	-0.6771410147010205	0.0	0.9239712863758329	-0.7702184933424532	0.0	0.9614575909165817	-0.7887392221841386	0.0	0.9545849009648658	-0.7867917429315182	0.0	0.9095486851824056	-0.7813364611254974	0.0	0.9457831252847148	-0.44150606298355627	0.0	0.9718699483499653	-0.3877481911479084	0.0	0.9820696914846715	-0.42372437945657704	0.0	0.932405259859017	-0.46022365709326496	0.0	0.9280576822620014	-0.5274932276046966	0.0	0.9450375767244003	-0.586106265760399	0.0	0.9426646450474842	-0.45958594293937993	0.0	0.9391174492654666	-0.5244869982622964	0.0	0.9540342537018751	-0.5807022568767309	0.0
128	4.293501048218029	0.9357592461459582	-0.566407498554147	0.0	0.9331724658463353	-0.5660901096862486	0.0	0.941775141462168	-0.6675599812935048	0.0	0.9231956784472752	-0.7635653584646643	0.0	0.9580624722940777	-0.782602362376843	0.0	0.9478186604390273	-0.784624399924337	0.0	0.9155730354137825	-0.7781332153657818	0.0	0.9392530106560228	-0.5638957063551185	0.0	0.9423750153654533	-0.6673755515935643	0.0	0.9241169357130385	-0.7611177403775187	0.0	0.9625069058795814	-0.7800084568364966	0.0	0.9555854373687064	-0.7781186510562431	0.0	0.9099210334198293	-0.7726669434228339	0.0	0.9462321085012945	-0.4325867643207608	0.0	0.9737239037508509	-0.37997475032389105	0.0	0.9829732924205143	-0.4155109593157137	0.0	0.9336901976350451	-0.4512256025917582	0.0	0.9290661852339758	-0.5175039167375883	0.0	0.947363383652105	-0.5747083785470541	0.0	0.9410616033264942	-0.4501451773901416	0.0	0.9367849954000826	-0.5141611613363012	0.0	0.952091270257718	-0.5700053811291876	0.0
129	4.327044025157232	0.9341135439113626	-0.5583404080296415	0.0	0.9324438878483002	-0.5585169311261755	0.0	0.9435741773991722	-0.6596312702798922	0.0	0.9238605672685909	-0.7562225242328134	0.0	0.9597033368553309	-0.7752820053403172	0.0	0.9492723814888755	-0.7778206435551507	0.0	0.9161700147218674	-0.7711990747146227	0.0	0.9359294967901745	-0.5562813844300881	0.0	0.9419474762287962	-0.6594916313746123	0.0	0.9241075216173167	-0.7538088824778755	0.0	0.9628868662127017	-0.7728148430651718	0.0	0.9559603782331413	-0.770903814675876	0.0	0.9104718206389188	-0.7657538700027932	0.0	0.9467912066380304	-0.4253152306666065	0.0	0.9754658267771463	-0.3737550652697395	0.0	0.983863153054787	-0.4087692565720705	0.0	0.9351434688746835	-0.443740733823322	0.0	0.9299431254499261	-0.5091063336346757	0.0	0.9492652996167671	-0.5652221772099796	0.0	0.939646926287751	-0.44223552525858095	0.0	0.9345358066767389	-0.5054362173547557	0.0	0.9506720058797447	-0.5612763544604518	0.0
130	4.360587002096436	0.9325290341985509	-0.5526347311285784	0.0	0.9317347331552662	-0.553184588956581	0.0	0.945793191101267	-0.6542434654071189	0.0	0.9246205994939186	-0.7511576794008272	0.0	0.9609767197570999	-0.7702369336029605	0.0	0.950433734138485	-0.7731709145517777	0.0	0.9168085973088063	-0.766268110873244	0.0	0.9327378607268882	-0.5509826873481194	0.0	0.9409179271432542	-0.6541618337536089	0.0	0.9238948488827127	-0.7488841053710709	0.0	0.9626270438812861	-0.7678983459395221	0.0	0.9557123260960371	-0.7658313033285337	0.0	0.9110477197332436	-0.7611931478980825	0.0	0.9473486961501606	-0.4203770506296739	0.0	0.9770342152372029	-0.3696194289024022	0.0	0.9846784615304661	-0.4042011894795801	0.0	0.9365703904488092	-0.4384600401146071	0.0	0.9307978110970926	-0.503006455811292	0.0	0.9509940961634877	-0.558466548271111	0.0	0.9382371912814415	-0.43649968770621816	0.0	0.9318845804769283	-0.4989294460865746	0.0	0.9493755422376519	-0.5553204925103636	0.0
131	4.394129979035639	0.930960682449662	-0.5496560252335937	0.0	0.9310845525033539	-0.5504208300926933	0.0	0.9484234398111882	-0.6516660354550264	0.0	0.9255170826576758	-0.7485716044777723	0.0	0.9621501762782186	-0.7678368170539107	0.0	0.9515112416646735	-0.771010894367177	0.0	0.9174608536257766	-0.7636768273162455	0.0	0.9297727770818963	-0.5482664810002907	0.0	0.9393174200681302	-0.6516950793319449	0.0	0.9234706995764066	-0.7466249108997758	0.0	0.9619316130078295	-0.7656062362364532	0.0	0.9549938866801275	-0.7632746530361548	0.0	0.9115197954861266	-0.7593005523861269	0.0	0.9478009495267805	-0.418187121279213	0.0	0.9783285350494098	-0.3678427380910127	0.0	0.9853551001750714	-0.4021760169580197	0.0	0.9377958914560562	-0.43587000803022363	0.0	0.9316975309737128	-0.4996839304819466	0.0	0.9526983773421102	-0.554924423499078	0.0	0.936701112700814	-0.4333921078499843	0.0	0.9284910602210102	-0.49504874991613146	0.0	0.9478099654036569	-0.5525577482325653	0.0
